<?xml version="1.0" encoding="utf-8"?>
<!-- Svg Vector Icons : http://www.onlinewebfonts.com/icon -->
<!DOCTYPE svg PUBLIC "-//W3C//DTD SVG 1.1//EN" "http://www.w3.org/Graphics/SVG/1.1/DTD/svg11.dtd">
<svg version="1.1" xmlns="http://www.w3.org/2000/svg" xmlns:xlink="http://www.w3.org/1999/xlink" x="0px" y="0px" viewBox="0 0 1000 1000" enable-background="new 0 0 1000 1000" xml:space="preserve">
<metadata> Svg Vector Icons : http://www.onlinewebfonts.com/icon </metadata>
<g><g transform="translate(0.000000,512.000000) scale(0.100000,-0.100000)"><path d="M3579.1,4023.7c-793.2-549.9-1438.9-1005.9-1437-1015.5C2147.8,2992.8,5002.8,1004,5020,1004c5.7,0,9.6,320,9.6,710.9v712.8l178.2-13.4c1092.2-84.3,2048.3-739.6,2513.9-1722.5c394.7-829.7,383.2-1799.2-30.7-2621.2c-155.2-310.4-306.6-519.3-572.9-785.6c-427.3-429.2-906.3-691.7-1498.3-823.9c-277.8-61.3-814.3-72.8-1117.1-21.1C3399-3370.4,2490.8-2594.4,2138.3-1534.8c-76.6,231.8-113.1,413.8-139.9,705.1l-23,243.4h-580.6H814.3v-159c0-636.1,247.2-1444.7,628.5-2059.7c785.6-1266.5,2222.6-2031,3703.7-1971.6c1086.4,44.1,2038.7,459.9,2807,1228.2c555.7,555.6,921.6,1195.6,1109.4,1944.8c145.6,578.6,162.9,1239.7,46,1826c-275.9,1385.3-1228.2,2534.9-2542.6,3071.4c-404.3,164.8-868,270.2-1297.2,293.1l-229.9,13.4l-9.6,710.9L5020,5020L3579.1,4023.7z"/></g></g>
</svg>