<?xml version="1.0" encoding="utf-8"?>
<!-- Svg Vector Icons : http://www.onlinewebfonts.com/icon -->
<!DOCTYPE svg PUBLIC "-//W3C//DTD SVG 1.1//EN" "http://www.w3.org/Graphics/SVG/1.1/DTD/svg11.dtd">
<svg version="1.1" xmlns="http://www.w3.org/2000/svg" xmlns:xlink="http://www.w3.org/1999/xlink" x="0px" y="0px" viewBox="0 0 1000 1000" enable-background="new 0 0 1000 1000" xml:space="preserve">
<metadata> Svg Vector Icons : http://www.onlinewebfonts.com/icon </metadata>
<g><g transform="translate(0.000000,512.000000) scale(0.100000,-0.100000)"><path d="M4958.8,4316l1.9-705.9l-230.2-13.4c-542.9-28.8-1070.4-168.8-1578.8-418.2c-1258.4-617.7-2114-1799.4-2315.4-3194c-42.2-291.6-44.1-840.2-1.9-1122.2c176.5-1229.6,824.9-2261.7,1847.3-2946.5c247.5-166.9,707.8-391.3,993.7-485.4c1310.2-429.7,2733.6-193.7,3846.2,638.8c211,157.3,596.6,533.3,755.8,734.7c542.9,692.5,853.6,1509.7,905.4,2396l13.4,218.7l-592.7-3.8l-592.8-5.7l-13.4-207.2c-78.6-1275.7-1009-2392.1-2259.7-2708.7c-291.6-72.9-493-92.1-863.2-80.6c-385.6,11.5-604.3,53.7-947.6,184.2c-658,247.4-1229.6,740.4-1567.3,1352.4c-412.4,744.3-493,1613.3-226.4,2419c310.8,938.1,1114.5,1699.6,2071.8,1956.7c182.2,48,550.5,105.5,688.7,105.5h76.7l3.8-709.8l5.7-709.8l1431.1,993.7c786.5,544.8,1433,1001.4,1434.9,1010.9c3.8,19.2-2842.9,2004.6-2873.6,2004.6C4964.5,5020,4958.8,4703.5,4958.8,4316z"/></g></g>
</svg>